<?xml version="1.0" encoding="UTF-8"?><svg xmlns="http://www.w3.org/2000/svg" xmlns:xlink="http://www.w3.org/1999/xlink" fill-opacity="1" color-rendering="auto" color-interpolation="auto" text-rendering="auto" stroke="black" stroke-linecap="square" width="669" stroke-miterlimit="10" shape-rendering="auto" stroke-opacity="1" fill="black" stroke-dasharray="none" font-weight="normal" stroke-width="1" height="1053" font-family="'Dialog'" font-style="normal" stroke-linejoin="miter" font-size="12px" stroke-dashoffset="0" image-rendering="auto">
  <!--Generated by ySVG 2.5-->
  <defs id="genericDefs"/>
  <g>
    <defs id="defs1">
      <clipPath clipPathUnits="userSpaceOnUse" id="clipPath1">
        <path d="M0 0 L669 0 L669 1053 L0 1053 L0 0 Z"/>
      </clipPath>
      <clipPath clipPathUnits="userSpaceOnUse" id="clipPath2">
        <path d="M-47 -64 L227.0224 -64 L227.0224 367.3088 L-47 367.3088 L-47 -64 Z"/>
      </clipPath>
    </defs>
    <g fill="white" text-rendering="geometricPrecision" shape-rendering="geometricPrecision" transform="scale(2.4414,2.4414) translate(47,64)" stroke="white">
      <rect x="-47" width="275" height="432" y="-64" clip-path="url(#clipPath2)" stroke="none"/>
    </g>
    <g fill="rgb(255,204,0)" text-rendering="geometricPrecision" shape-rendering="geometricPrecision" transform="matrix(2.4414,0,0,2.4414,114.7461,156.25)" stroke="rgb(255,204,0)">
      <rect x="-31.384" width="30" height="30" y="35" clip-path="url(#clipPath2)" stroke="none"/>
    </g>
    <g text-rendering="geometricPrecision" stroke-miterlimit="1.45" shape-rendering="geometricPrecision" transform="matrix(2.4414,0,0,2.4414,114.7461,156.25)" stroke-linecap="butt">
      <rect fill="none" x="-31.384" width="30" height="30" y="35" clip-path="url(#clipPath2)"/>
      <text x="-23.7229" xml:space="preserve" y="54.7139" clip-path="url(#clipPath2)" font-family="sans-serif" stroke="none">X0</text>
    </g>
    <g fill="rgb(255,204,0)" text-rendering="geometricPrecision" shape-rendering="geometricPrecision" transform="matrix(2.4414,0,0,2.4414,114.7461,156.25)" stroke="rgb(255,204,0)">
      <rect x="175.448" width="30" height="30" y="110" clip-path="url(#clipPath2)" stroke="none"/>
    </g>
    <g text-rendering="geometricPrecision" stroke-miterlimit="1.45" shape-rendering="geometricPrecision" transform="matrix(2.4414,0,0,2.4414,114.7461,156.25)" stroke-linecap="butt">
      <rect fill="none" x="175.448" width="30" height="30" y="110" clip-path="url(#clipPath2)"/>
      <text x="183.1091" xml:space="preserve" y="129.7139" clip-path="url(#clipPath2)" font-family="sans-serif" stroke="none">X1</text>
    </g>
    <g fill="rgb(255,204,0)" text-rendering="geometricPrecision" shape-rendering="geometricPrecision" transform="matrix(2.4414,0,0,2.4414,114.7461,156.25)" stroke="rgb(255,204,0)">
      <rect x="60" width="30" height="30" y="260" clip-path="url(#clipPath2)" stroke="none"/>
    </g>
    <g text-rendering="geometricPrecision" stroke-miterlimit="1.45" shape-rendering="geometricPrecision" transform="matrix(2.4414,0,0,2.4414,114.7461,156.25)" stroke-linecap="butt">
      <rect fill="none" x="60" width="30" height="30" y="260" clip-path="url(#clipPath2)"/>
      <text x="67.6611" xml:space="preserve" y="279.7139" clip-path="url(#clipPath2)" font-family="sans-serif" stroke="none">X2</text>
    </g>
    <g fill="rgb(255,204,0)" text-rendering="geometricPrecision" shape-rendering="geometricPrecision" transform="matrix(2.4414,0,0,2.4414,114.7461,156.25)" stroke="rgb(255,204,0)">
      <rect x="60" width="30" height="30" y="110" clip-path="url(#clipPath2)" stroke="none"/>
    </g>
    <g text-rendering="geometricPrecision" stroke-miterlimit="1.45" shape-rendering="geometricPrecision" transform="matrix(2.4414,0,0,2.4414,114.7461,156.25)" stroke-linecap="butt">
      <rect fill="none" x="60" width="30" height="30" y="110" clip-path="url(#clipPath2)"/>
      <text x="67.6611" xml:space="preserve" y="129.7139" clip-path="url(#clipPath2)" font-family="sans-serif" stroke="none">X3</text>
    </g>
    <g fill="rgb(255,204,0)" text-rendering="geometricPrecision" shape-rendering="geometricPrecision" transform="matrix(2.4414,0,0,2.4414,114.7461,156.25)" stroke="rgb(255,204,0)">
      <rect x="60" width="30" height="30" y="-15" clip-path="url(#clipPath2)" stroke="none"/>
    </g>
    <g text-rendering="geometricPrecision" stroke-miterlimit="1.45" shape-rendering="geometricPrecision" transform="matrix(2.4414,0,0,2.4414,114.7461,156.25)" stroke-linecap="butt">
      <rect fill="none" x="60" width="30" height="30" y="-15" clip-path="url(#clipPath2)"/>
      <text x="67.6611" xml:space="preserve" y="4.7139" clip-path="url(#clipPath2)" font-family="sans-serif" stroke="none">X4</text>
    </g>
    <g fill="rgb(255,204,0)" text-rendering="geometricPrecision" shape-rendering="geometricPrecision" transform="matrix(2.4414,0,0,2.4414,114.7461,156.25)" stroke="rgb(255,204,0)">
      <rect x="175.448" width="30" height="30" y="185" clip-path="url(#clipPath2)" stroke="none"/>
    </g>
    <g text-rendering="geometricPrecision" stroke-miterlimit="1.45" shape-rendering="geometricPrecision" transform="matrix(2.4414,0,0,2.4414,114.7461,156.25)" stroke-linecap="butt">
      <rect fill="none" x="175.448" width="30" height="30" y="185" clip-path="url(#clipPath2)"/>
      <text x="183.1091" xml:space="preserve" y="204.7139" clip-path="url(#clipPath2)" font-family="sans-serif" stroke="none">X5</text>
    </g>
    <g fill="rgb(255,204,0)" text-rendering="geometricPrecision" shape-rendering="geometricPrecision" transform="matrix(2.4414,0,0,2.4414,114.7461,156.25)" stroke="rgb(255,204,0)">
      <rect x="-31.384" width="30" height="30" y="110" clip-path="url(#clipPath2)" stroke="none"/>
    </g>
    <g text-rendering="geometricPrecision" stroke-miterlimit="1.45" shape-rendering="geometricPrecision" transform="matrix(2.4414,0,0,2.4414,114.7461,156.25)" stroke-linecap="butt">
      <rect fill="none" x="-31.384" width="30" height="30" y="110" clip-path="url(#clipPath2)"/>
      <text x="-23.7229" xml:space="preserve" y="129.7139" clip-path="url(#clipPath2)" font-family="sans-serif" stroke="none">X6</text>
    </g>
    <g fill="rgb(255,204,0)" text-rendering="geometricPrecision" shape-rendering="geometricPrecision" transform="matrix(2.4414,0,0,2.4414,114.7461,156.25)" stroke="rgb(255,204,0)">
      <rect x="60" width="30" height="30" y="185" clip-path="url(#clipPath2)" stroke="none"/>
    </g>
    <g text-rendering="geometricPrecision" stroke-miterlimit="1.45" shape-rendering="geometricPrecision" transform="matrix(2.4414,0,0,2.4414,114.7461,156.25)" stroke-linecap="butt">
      <rect fill="none" x="60" width="30" height="30" y="185" clip-path="url(#clipPath2)"/>
      <text x="67.6611" xml:space="preserve" y="204.7139" clip-path="url(#clipPath2)" font-family="sans-serif" stroke="none">X7</text>
      <path fill="none" d="M175.4063 125 L98 125" clip-path="url(#clipPath2)"/>
      <path d="M90 125 L102 130 L99 125 L102 120 Z" clip-path="url(#clipPath2)" stroke="none"/>
      <text x="112.7113" xml:space="preserve" y="141.0645" clip-path="url(#clipPath2)" font-family="sans-serif" stroke="none">usedfor</text>
      <path fill="none" d="M66.6334 109.9707 L4.6167 55.2908" clip-path="url(#clipPath2)"/>
      <path d="M-1.384 50 L4.3103 61.6865 L5.3667 55.9521 L10.9237 54.1857 Z" clip-path="url(#clipPath2)" stroke="none"/>
      <text x="-33.3965" xml:space="preserve" y="95.2383" clip-path="url(#clipPath2)" font-family="sans-serif" stroke="none">hasproperty</text>
      <path fill="none" d="M75 109.9536 L75 23" clip-path="url(#clipPath2)"/>
      <path d="M75 15 L70 27 L75 24 L80 27 Z" clip-path="url(#clipPath2)" stroke="none"/>
      <text x="79" xml:space="preserve" y="67.2139" clip-path="url(#clipPath2)" font-family="sans-serif" stroke="none">hassubevent</text>
      <path fill="none" d="M59.97 125 L6.616 125" clip-path="url(#clipPath2)"/>
      <path d="M-1.384 125 L10.616 130 L7.616 125 L10.616 120 Z" clip-path="url(#clipPath2)" stroke="none"/>
      <text x="10.2973" xml:space="preserve" y="141.0645" clip-path="url(#clipPath2)" font-family="sans-serif" stroke="none">causes</text>
      <path fill="none" d="M75 140 L75 176.9561" clip-path="url(#clipPath2)"/>
      <path d="M75 184.9561 L80 172.9561 L75 175.9561 L70 172.9561 Z" clip-path="url(#clipPath2)" stroke="none"/>
      <text x="79" xml:space="preserve" y="167.2139" clip-path="url(#clipPath2)" font-family="sans-serif" stroke="none">hasprerequisite</text>
      <path fill="none" d="M90 200 L167.4063 200" clip-path="url(#clipPath2)"/>
      <path d="M175.4063 200 L163.4063 195 L166.4063 200 L163.4063 205 Z" clip-path="url(#clipPath2)" stroke="none"/>
      <text x="94.3715" xml:space="preserve" y="216.0645" clip-path="url(#clipPath2)" font-family="sans-serif" stroke="none">receivesaction</text>
      <path fill="none" d="M75 215 L75 251.9561" clip-path="url(#clipPath2)"/>
      <path d="M75 259.9561 L80 247.9561 L75 250.9561 L70 247.9561 Z" clip-path="url(#clipPath2)" stroke="none"/>
      <text x="79" xml:space="preserve" y="242.2139" clip-path="url(#clipPath2)" font-family="sans-serif" stroke="none">atlocation</text>
    </g>
  </g>
</svg>
