<?xml version="1.0" encoding="UTF-8"?><svg xmlns="http://www.w3.org/2000/svg" xmlns:xlink="http://www.w3.org/1999/xlink" fill-opacity="1" color-rendering="auto" color-interpolation="auto" text-rendering="auto" stroke="black" stroke-linecap="square" width="652" stroke-miterlimit="10" shape-rendering="auto" stroke-opacity="1" fill="black" stroke-dasharray="none" font-weight="normal" stroke-width="1" height="1053" font-family="'Dialog'" font-style="normal" stroke-linejoin="miter" font-size="12px" stroke-dashoffset="0" image-rendering="auto">
  <!--Generated by ySVG 2.5-->
  <defs id="genericDefs"/>
  <g>
    <defs id="defs1">
      <clipPath clipPathUnits="userSpaceOnUse" id="clipPath1">
        <path d="M0 0 L652 0 L652 1053 L0 1053 L0 0 Z"/>
      </clipPath>
      <clipPath clipPathUnits="userSpaceOnUse" id="clipPath2">
        <path d="M-32 -62 L235.0592 -62 L235.0592 369.3088 L-32 369.3088 L-32 -62 Z"/>
      </clipPath>
    </defs>
    <g fill="white" text-rendering="geometricPrecision" shape-rendering="geometricPrecision" transform="scale(2.4414,2.4414) translate(32,62)" stroke="white">
      <rect x="-32" width="268" height="432" y="-62" clip-path="url(#clipPath2)" stroke="none"/>
    </g>
    <g fill="rgb(255,204,0)" text-rendering="geometricPrecision" shape-rendering="geometricPrecision" transform="matrix(2.4414,0,0,2.4414,78.125,151.3672)" stroke="rgb(255,204,0)">
      <rect x="92.4264" width="30" height="30" y="92.4264" clip-path="url(#clipPath2)" stroke="none"/>
    </g>
    <g text-rendering="geometricPrecision" stroke-miterlimit="1.45" shape-rendering="geometricPrecision" transform="matrix(2.4414,0,0,2.4414,78.125,151.3672)" stroke-linecap="butt">
      <rect fill="none" x="92.4264" width="30" height="30" y="92.4264" clip-path="url(#clipPath2)"/>
      <text x="100.0875" xml:space="preserve" y="112.1403" clip-path="url(#clipPath2)" font-family="sans-serif" stroke="none">X0</text>
    </g>
    <g fill="rgb(255,204,0)" text-rendering="geometricPrecision" shape-rendering="geometricPrecision" transform="matrix(2.4414,0,0,2.4414,78.125,151.3672)" stroke="rgb(255,204,0)">
      <rect x="184.8528" width="30" height="30" y="92.4264" clip-path="url(#clipPath2)" stroke="none"/>
    </g>
    <g text-rendering="geometricPrecision" stroke-miterlimit="1.45" shape-rendering="geometricPrecision" transform="matrix(2.4414,0,0,2.4414,78.125,151.3672)" stroke-linecap="butt">
      <rect fill="none" x="184.8528" width="30" height="30" y="92.4264" clip-path="url(#clipPath2)"/>
      <text x="192.5139" xml:space="preserve" y="112.1403" clip-path="url(#clipPath2)" font-family="sans-serif" stroke="none">X2</text>
    </g>
    <g fill="rgb(255,204,0)" text-rendering="geometricPrecision" shape-rendering="geometricPrecision" transform="matrix(2.4414,0,0,2.4414,78.125,151.3672)" stroke="rgb(255,204,0)">
      <rect x="-20" width="30" height="30" y="92.4264" clip-path="url(#clipPath2)" stroke="none"/>
    </g>
    <g text-rendering="geometricPrecision" stroke-miterlimit="1.45" shape-rendering="geometricPrecision" transform="matrix(2.4414,0,0,2.4414,78.125,151.3672)" stroke-linecap="butt">
      <rect fill="none" x="-20" width="30" height="30" y="92.4264" clip-path="url(#clipPath2)"/>
      <text x="-12.3389" xml:space="preserve" y="112.1403" clip-path="url(#clipPath2)" font-family="sans-serif" stroke="none">X3</text>
    </g>
    <g fill="rgb(255,204,0)" text-rendering="geometricPrecision" shape-rendering="geometricPrecision" transform="matrix(2.4414,0,0,2.4414,78.125,151.3672)" stroke="rgb(255,204,0)">
      <rect x="92.4264" width="30" height="30" y="15.8528" clip-path="url(#clipPath2)" stroke="none"/>
    </g>
    <g text-rendering="geometricPrecision" stroke-miterlimit="1.45" shape-rendering="geometricPrecision" transform="matrix(2.4414,0,0,2.4414,78.125,151.3672)" stroke-linecap="butt">
      <rect fill="none" x="92.4264" width="30" height="30" y="15.8528" clip-path="url(#clipPath2)"/>
      <text x="100.0875" xml:space="preserve" y="35.5667" clip-path="url(#clipPath2)" font-family="sans-serif" stroke="none">X4</text>
      <path fill="none" d="M184.8528 107.4264 L130.4264 107.4264" clip-path="url(#clipPath2)"/>
      <path d="M122.4264 107.4264 L134.4264 112.4264 L131.4264 107.4264 L134.4264 102.4264 Z" clip-path="url(#clipPath2)" stroke="none"/>
      <text x="138.2968" xml:space="preserve" y="123.4909" clip-path="url(#clipPath2)" font-family="sans-serif" stroke="none">partof</text>
      <path fill="none" d="M92.4264 107.4264 L18 107.4264" clip-path="url(#clipPath2)"/>
      <path d="M10 107.4264 L22 112.4264 L19 107.4264 L22 102.4264 Z" clip-path="url(#clipPath2)" stroke="none"/>
      <text x="17.1878" xml:space="preserve" y="123.4909" clip-path="url(#clipPath2)" font-family="sans-serif" stroke="none">hassubevent</text>
      <path fill="none" d="M107.4264 92.4264 L107.4264 53.8528" clip-path="url(#clipPath2)"/>
      <path d="M107.4264 45.8528 L102.4264 57.8528 L107.4264 54.8528 L112.4264 57.8528 Z" clip-path="url(#clipPath2)" stroke="none"/>
      <text x="111.4264" xml:space="preserve" y="73.8535" clip-path="url(#clipPath2)" font-family="sans-serif" stroke="none">motivatedbygoal</text>
    </g>
  </g>
</svg>
