<?xml version="1.0" encoding="UTF-8"?><svg xmlns="http://www.w3.org/2000/svg" xmlns:xlink="http://www.w3.org/1999/xlink" fill-opacity="1" color-rendering="auto" color-interpolation="auto" text-rendering="auto" stroke="black" stroke-linecap="square" width="652" stroke-miterlimit="10" shape-rendering="auto" stroke-opacity="1" fill="black" stroke-dasharray="none" font-weight="normal" stroke-width="1" height="1053" font-family="'Dialog'" font-style="normal" stroke-linejoin="miter" font-size="12px" stroke-dashoffset="0" image-rendering="auto">
  <!--Generated by ySVG 2.5-->
  <defs id="genericDefs"/>
  <g>
    <defs id="defs1">
      <clipPath clipPathUnits="userSpaceOnUse" id="clipPath1">
        <path d="M0 0 L652 0 L652 1053 L0 1053 L0 0 Z"/>
      </clipPath>
      <clipPath clipPathUnits="userSpaceOnUse" id="clipPath2">
        <path d="M-50 -109 L217.0592 -109 L217.0592 322.3088 L-50 322.3088 L-50 -109 Z"/>
      </clipPath>
    </defs>
    <g fill="white" text-rendering="geometricPrecision" shape-rendering="geometricPrecision" transform="scale(2.4414,2.4414) translate(50,109)" stroke="white">
      <rect x="-50" width="268" height="432" y="-109" clip-path="url(#clipPath2)" stroke="none"/>
    </g>
    <g fill="rgb(255,204,0)" text-rendering="geometricPrecision" shape-rendering="geometricPrecision" transform="matrix(2.4414,0,0,2.4414,122.0703,266.1133)" stroke="rgb(255,204,0)">
      <rect x="46.2132" width="30" height="30" y="0" clip-path="url(#clipPath2)" stroke="none"/>
    </g>
    <g text-rendering="geometricPrecision" stroke-miterlimit="1.45" shape-rendering="geometricPrecision" transform="matrix(2.4414,0,0,2.4414,122.0703,266.1133)" stroke-linecap="butt">
      <rect fill="none" x="46.2132" width="30" height="30" y="0" clip-path="url(#clipPath2)"/>
      <text x="53.8743" xml:space="preserve" y="19.7139" clip-path="url(#clipPath2)" font-family="sans-serif" stroke="none">X0</text>
    </g>
    <g fill="rgb(255,204,0)" text-rendering="geometricPrecision" shape-rendering="geometricPrecision" transform="matrix(2.4414,0,0,2.4414,122.0703,266.1133)" stroke="rgb(255,204,0)">
      <rect x="-30" width="30" height="30" y="80.0436" clip-path="url(#clipPath2)" stroke="none"/>
    </g>
    <g text-rendering="geometricPrecision" stroke-miterlimit="1.45" shape-rendering="geometricPrecision" transform="matrix(2.4414,0,0,2.4414,122.0703,266.1133)" stroke-linecap="butt">
      <rect fill="none" x="-30" width="30" height="30" y="80.0436" clip-path="url(#clipPath2)"/>
      <text x="-22.3389" xml:space="preserve" y="99.7575" clip-path="url(#clipPath2)" font-family="sans-serif" stroke="none">X1</text>
    </g>
    <g fill="rgb(255,204,0)" text-rendering="geometricPrecision" shape-rendering="geometricPrecision" transform="matrix(2.4414,0,0,2.4414,122.0703,266.1133)" stroke="rgb(255,204,0)">
      <rect x="168.6396" width="30" height="30" y="80.0436" clip-path="url(#clipPath2)" stroke="none"/>
    </g>
    <g text-rendering="geometricPrecision" stroke-miterlimit="1.45" shape-rendering="geometricPrecision" transform="matrix(2.4414,0,0,2.4414,122.0703,266.1133)" stroke-linecap="butt">
      <rect fill="none" x="168.6396" width="30" height="30" y="80.0436" clip-path="url(#clipPath2)"/>
      <text x="176.3008" xml:space="preserve" y="99.7575" clip-path="url(#clipPath2)" font-family="sans-serif" stroke="none">X2</text>
    </g>
    <g fill="rgb(255,204,0)" text-rendering="geometricPrecision" shape-rendering="geometricPrecision" transform="matrix(2.4414,0,0,2.4414,122.0703,266.1133)" stroke="rgb(255,204,0)">
      <rect x="46.2132" width="30" height="30" y="80.0436" clip-path="url(#clipPath2)" stroke="none"/>
    </g>
    <g text-rendering="geometricPrecision" stroke-miterlimit="1.45" shape-rendering="geometricPrecision" transform="matrix(2.4414,0,0,2.4414,122.0703,266.1133)" stroke-linecap="butt">
      <rect fill="none" x="46.2132" width="30" height="30" y="80.0436" clip-path="url(#clipPath2)"/>
      <text x="53.8743" xml:space="preserve" y="99.7575" clip-path="url(#clipPath2)" font-family="sans-serif" stroke="none">X3</text>
      <path fill="none" d="M61.2132 80.0436 L61.2132 38" clip-path="url(#clipPath2)"/>
      <path d="M61.2132 30 L56.2132 42 L61.2132 39 L66.2132 42 Z" clip-path="url(#clipPath2)" stroke="none"/>
      <text x="65.2132" xml:space="preserve" y="59.7357" clip-path="url(#clipPath2)" font-family="sans-serif" stroke="none">motivatedbygoal</text>
      <path fill="none" d="M46.2132 95.0436 L8 95.0436" clip-path="url(#clipPath2)"/>
      <path d="M0 95.0436 L12 100.0436 L9 95.0436 L12 90.0436 Z" clip-path="url(#clipPath2)" stroke="none"/>
      <text x="3.0939" xml:space="preserve" y="111.1081" clip-path="url(#clipPath2)" font-family="sans-serif" stroke="none">usedfor</text>
      <path fill="none" d="M76.2132 95.0436 L160.6396 95.0436" clip-path="url(#clipPath2)"/>
      <path d="M168.6396 95.0436 L156.6396 90.0436 L159.6396 95.0436 L156.6396 100.0436 Z" clip-path="url(#clipPath2)" stroke="none"/>
      <text x="81.402" xml:space="preserve" y="111.1081" clip-path="url(#clipPath2)" font-family="sans-serif" stroke="none">hasprerequisite</text>
    </g>
  </g>
</svg>
