<?xml version="1.0" encoding="UTF-8"?><svg xmlns="http://www.w3.org/2000/svg" xmlns:xlink="http://www.w3.org/1999/xlink" fill-opacity="1" color-rendering="auto" color-interpolation="auto" text-rendering="auto" stroke="black" stroke-linecap="square" width="652" stroke-miterlimit="10" shape-rendering="auto" stroke-opacity="1" fill="black" stroke-dasharray="none" font-weight="normal" stroke-width="1" height="1053" font-family="'Dialog'" font-style="normal" stroke-linejoin="miter" font-size="12px" stroke-dashoffset="0" image-rendering="auto">
  <!--Generated by ySVG 2.5-->
  <defs id="genericDefs"/>
  <g>
    <defs id="defs1">
      <clipPath clipPathUnits="userSpaceOnUse" id="clipPath1">
        <path d="M0 0 L652 0 L652 1053 L0 1053 L0 0 Z"/>
      </clipPath>
      <clipPath clipPathUnits="userSpaceOnUse" id="clipPath2">
        <path d="M11 -130 L278.0592 -130 L278.0592 301.3088 L11 301.3088 L11 -130 Z"/>
      </clipPath>
    </defs>
    <g fill="white" text-rendering="geometricPrecision" shape-rendering="geometricPrecision" transform="scale(2.4414,2.4414) translate(-11,130)" stroke="white">
      <rect x="11" width="268" height="432" y="-130" clip-path="url(#clipPath2)" stroke="none"/>
    </g>
    <g fill="rgb(255,204,0)" text-rendering="geometricPrecision" shape-rendering="geometricPrecision" transform="matrix(2.4414,0,0,2.4414,-26.8555,317.3828)" stroke="rgb(255,204,0)">
      <rect x="161" width="30" height="30" y="50" clip-path="url(#clipPath2)" stroke="none"/>
    </g>
    <g text-rendering="geometricPrecision" stroke-miterlimit="1.45" shape-rendering="geometricPrecision" transform="matrix(2.4414,0,0,2.4414,-26.8555,317.3828)" stroke-linecap="butt">
      <rect fill="none" x="161" width="30" height="30" y="50" clip-path="url(#clipPath2)"/>
      <text x="168.6611" xml:space="preserve" y="69.7139" clip-path="url(#clipPath2)" font-family="sans-serif" stroke="none">X0</text>
    </g>
    <g fill="rgb(255,204,0)" text-rendering="geometricPrecision" shape-rendering="geometricPrecision" transform="matrix(2.4414,0,0,2.4414,-26.8555,317.3828)" stroke="rgb(255,204,0)">
      <rect x="161" width="30" height="30" y="121" clip-path="url(#clipPath2)" stroke="none"/>
    </g>
    <g text-rendering="geometricPrecision" stroke-miterlimit="1.45" shape-rendering="geometricPrecision" transform="matrix(2.4414,0,0,2.4414,-26.8555,317.3828)" stroke-linecap="butt">
      <rect fill="none" x="161" width="30" height="30" y="121" clip-path="url(#clipPath2)"/>
      <text x="168.6611" xml:space="preserve" y="140.7139" clip-path="url(#clipPath2)" font-family="sans-serif" stroke="none">X1</text>
    </g>
    <g fill="rgb(255,204,0)" text-rendering="geometricPrecision" shape-rendering="geometricPrecision" transform="matrix(2.4414,0,0,2.4414,-26.8555,317.3828)" stroke="rgb(255,204,0)">
      <rect x="22" width="30" height="30" y="50" clip-path="url(#clipPath2)" stroke="none"/>
    </g>
    <g text-rendering="geometricPrecision" stroke-miterlimit="1.45" shape-rendering="geometricPrecision" transform="matrix(2.4414,0,0,2.4414,-26.8555,317.3828)" stroke-linecap="butt">
      <rect fill="none" x="22" width="30" height="30" y="50" clip-path="url(#clipPath2)"/>
      <text x="29.6611" xml:space="preserve" y="69.7139" clip-path="url(#clipPath2)" font-family="sans-serif" stroke="none">X2</text>
    </g>
    <g fill="rgb(255,204,0)" text-rendering="geometricPrecision" shape-rendering="geometricPrecision" transform="matrix(2.4414,0,0,2.4414,-26.8555,317.3828)" stroke="rgb(255,204,0)">
      <rect x="161" width="30" height="30" y="-21" clip-path="url(#clipPath2)" stroke="none"/>
    </g>
    <g text-rendering="geometricPrecision" stroke-miterlimit="1.45" shape-rendering="geometricPrecision" transform="matrix(2.4414,0,0,2.4414,-26.8555,317.3828)" stroke-linecap="butt">
      <rect fill="none" x="161" width="30" height="30" y="-21" clip-path="url(#clipPath2)"/>
      <text x="168.6611" xml:space="preserve" y="-1.2861" clip-path="url(#clipPath2)" font-family="sans-serif" stroke="none">X3</text>
    </g>
    <g fill="rgb(255,204,0)" text-rendering="geometricPrecision" shape-rendering="geometricPrecision" transform="matrix(2.4414,0,0,2.4414,-26.8555,317.3828)" stroke="rgb(255,204,0)">
      <rect x="22" width="30" height="30" y="-21" clip-path="url(#clipPath2)" stroke="none"/>
    </g>
    <g text-rendering="geometricPrecision" stroke-miterlimit="1.45" shape-rendering="geometricPrecision" transform="matrix(2.4414,0,0,2.4414,-26.8555,317.3828)" stroke-linecap="butt">
      <rect fill="none" x="22" width="30" height="30" y="-21" clip-path="url(#clipPath2)"/>
      <text x="29.6611" xml:space="preserve" y="-1.2861" clip-path="url(#clipPath2)" font-family="sans-serif" stroke="none">X4</text>
      <path fill="none" d="M176 80 L176 113" clip-path="url(#clipPath2)"/>
      <path d="M176 121 L181 109 L176 112 L171 109 Z" clip-path="url(#clipPath2)" stroke="none"/>
      <text x="180" xml:space="preserve" y="105.2139" clip-path="url(#clipPath2)" font-family="sans-serif" stroke="none">hassubevent</text>
      <path fill="none" d="M52 65 L153 65" clip-path="url(#clipPath2)"/>
      <path d="M161 65 L149 60 L152 65 L149 70 Z" clip-path="url(#clipPath2)" stroke="none"/>
      <text x="62.8066" xml:space="preserve" y="81.0645" clip-path="url(#clipPath2)" font-family="sans-serif" stroke="none">motivatedbygoal</text>
      <path fill="none" d="M176 50 L176 17" clip-path="url(#clipPath2)"/>
      <path d="M176 9 L171 21 L176 18 L181 21 Z" clip-path="url(#clipPath2)" stroke="none"/>
      <text x="180" xml:space="preserve" y="34.2139" clip-path="url(#clipPath2)" font-family="sans-serif" stroke="none">hasfirstsubevent</text>
      <path fill="none" d="M37 9 L37 42" clip-path="url(#clipPath2)"/>
      <path d="M37 50 L42 38 L37 41 L32 38 Z" clip-path="url(#clipPath2)" stroke="none"/>
      <text x="41" xml:space="preserve" y="34.2139" clip-path="url(#clipPath2)" font-family="sans-serif" stroke="none">hasprerequisite</text>
    </g>
  </g>
</svg>
